<svg width="12" height="13" viewBox="0 0 12 13" fill="none" xmlns="http://www.w3.org/2000/svg">
<g id="Group">
<path id="Vector" fill-rule="evenodd" clip-rule="evenodd" d="M9.33333 2.3335V1.66683C9.33333 1.31321 9.19286 0.974069 8.94281 0.72402C8.69276 0.473972 8.35362 0.333496 8 0.333496H4C3.64638 0.333496 3.30724 0.473972 3.05719 0.72402C2.80714 0.974069 2.66667 1.31321 2.66667 1.66683V2.3335H0.666667C0.489856 2.3335 0.320286 2.40373 0.195262 2.52876C0.0702379 2.65378 0 2.82335 0 3.00016C0 3.17697 0.0702379 3.34654 0.195262 3.47157C0.320286 3.59659 0.489856 3.66683 0.666667 3.66683H1.33333V11.0002C1.33333 11.5306 1.54405 12.0393 1.91912 12.4144C2.29419 12.7894 2.8029 13.0002 3.33333 13.0002H8.66667C9.1971 13.0002 9.70581 12.7894 10.0809 12.4144C10.456 12.0393 10.6667 11.5306 10.6667 11.0002V3.66683H11.3333C11.5101 3.66683 11.6797 3.59659 11.8047 3.47157C11.9298 3.34654 12 3.17697 12 3.00016C12 2.82335 11.9298 2.65378 11.8047 2.52876C11.6797 2.40373 11.5101 2.3335 11.3333 2.3335H9.33333ZM8 1.66683H4V2.3335H8V1.66683ZM9.33333 3.66683H2.66667V11.0002C2.66667 11.177 2.7369 11.3465 2.86193 11.4716C2.98695 11.5966 3.15652 11.6668 3.33333 11.6668H8.66667C8.84348 11.6668 9.01305 11.5966 9.13807 11.4716C9.2631 11.3465 9.33333 11.177 9.33333 11.0002V3.66683Z" fill="#6B7280"/>
<path id="Vector_2" d="M4 5H5.33333V10.3333H4V5ZM6.66667 5H8V10.3333H6.66667V5Z" fill="#6B7280"/>
</g>
</svg>
