<svg viewBox="0 0 24 24" fill="none" xmlns="http://www.w3.org/2000/svg">
<g id="Send">
<path id="Vector" d="M21.9483 2.49227C21.7277 2.27267 21.4509 2.11829 21.1485 2.0461C20.846 1.97391 20.5296 1.9867 20.2339 2.08307L3.17209 7.78837C2.85566 7.88889 2.57604 8.08116 2.36854 8.34089C2.16105 8.60063 2.03499 8.91618 2.00629 9.24769C1.97759 9.57921 2.04753 9.91181 2.20728 10.2035C2.36703 10.4952 2.60943 10.7329 2.90385 10.8865L9.98283 14.3939L13.4815 21.5138C13.6221 21.7925 13.8373 22.0265 14.103 22.1896C14.3687 22.3527 14.6744 22.4385 14.9859 22.4374H15.1026C15.4362 22.4128 15.7548 22.2881 16.0168 22.0796C16.2789 21.8711 16.4723 21.5885 16.572 21.2683L22.3448 4.21087C22.4479 3.91617 22.4653 3.59818 22.3951 3.29393C22.325 2.98967 22.17 2.71166 21.9483 2.49227ZM3.89515 9.40176L18.7878 4.42131L10.5193 12.7104L3.89515 9.40176ZM15.0676 20.5902L11.7555 13.9496L20.024 5.66058L15.0676 20.5902Z" fill="#6a7282"/>
</g>
</svg>