<svg width="14" height="14" viewBox="0 0 14 14" fill="none" xmlns="http://www.w3.org/2000/svg">
<g id="Group">
<path id="Vector" fill-rule="evenodd" clip-rule="evenodd" d="M9.42466 5.18205C9.42466 5.825 9.16925 6.44162 8.71461 6.89625C8.25998 7.35089 7.64336 7.6063 7.00041 7.6063C6.35747 7.6063 5.74085 7.35089 5.28622 6.89625C4.83158 6.44162 4.57617 5.825 4.57617 5.18205C4.57617 4.53911 4.83158 3.92249 5.28622 3.46786C5.74085 3.01322 6.35747 2.75781 7.00041 2.75781C7.64336 2.75781 8.25998 3.01322 8.71461 3.46786C9.16925 3.92249 9.42466 4.53911 9.42466 5.18205ZM8.21254 5.18205C8.21254 5.50353 8.08483 5.81184 7.85751 6.03915C7.6302 6.26647 7.32189 6.39418 7.00041 6.39418C6.67894 6.39418 6.37063 6.26647 6.14332 6.03915C5.916 5.81184 5.78829 5.50353 5.78829 5.18205C5.78829 4.86058 5.916 4.55227 6.14332 4.32496C6.37063 4.09764 6.67894 3.96993 7.00041 3.96993C7.32189 3.96993 7.6302 4.09764 7.85751 4.32496C8.08483 4.55227 8.21254 4.86058 8.21254 5.18205Z" fill="#6B7280"/>
<path id="Vector_2" fill-rule="evenodd" clip-rule="evenodd" d="M7.00065 0.333496C3.31883 0.333496 0.333984 3.31834 0.333984 7.00016C0.333984 10.682 3.31883 13.6668 7.00065 13.6668C10.6825 13.6668 13.6673 10.682 13.6673 7.00016C13.6673 3.31834 10.6825 0.333496 7.00065 0.333496ZM1.54611 7.00016C1.54611 8.26683 1.97823 9.43289 2.70247 10.359C3.21122 9.69115 3.86741 9.14995 4.61983 8.77757C5.37224 8.4052 6.20053 8.21174 7.04005 8.21228C7.86876 8.21132 8.68675 8.39961 9.43164 8.76281C10.1765 9.12601 10.8286 9.65453 11.3382 10.308C11.8633 9.61932 12.2169 8.81545 12.3697 7.96294C12.5224 7.11044 12.47 6.23382 12.2167 5.40561C11.9634 4.5774 11.5165 3.8214 10.9131 3.20019C10.3096 2.57897 9.56686 2.11038 8.74634 1.8332C7.92581 1.55602 7.05107 1.47821 6.19451 1.60621C5.33794 1.73421 4.52416 2.06434 3.82051 2.56929C3.11686 3.07423 2.54357 3.73948 2.14806 4.50998C1.75256 5.28048 1.54622 6.13408 1.54611 7.00016ZM7.00065 12.4547C5.74847 12.4567 4.53407 12.026 3.56308 11.2353C3.95387 10.6757 4.4741 10.2188 5.07948 9.90347C5.68487 9.58817 6.35747 9.42382 7.04005 9.42441C7.71409 9.42382 8.37855 9.58407 8.97822 9.89187C9.57789 10.1997 10.0955 10.6461 10.4879 11.1941C9.50942 12.0105 8.27498 12.4567 7.00065 12.4547Z" fill="#6B7280"/>
</g>
</svg>
